<svg width="80" height="80" fill="none" xmlns="http://www.w3.org/2000/svg"><g clip-path="url(#clip0_6859_439)" fill="#0070B8"><path d="M72 63.819a10.646 10.646 0 00-7.99-9.063l-15.26-4.292v-5.92c3.01-2.469 5.63-5.824 6.145-9.544h4.855a4 4 0 004-4v-4.5a3.989 3.989 0 00-2.275-3.591c.093-.758.144-1.52.15-2.284C61.625 12.921 58.814 0 40 0S18.375 12.921 18.375 20.625c.006.764.055 1.526.149 2.284A3.99 3.99 0 0016.25 26.5V31a4 4 0 004 4h4.859c.513 3.71 3.125 7.059 6.143 9.525v5.939L16.03 54.75A10.663 10.663 0 008 63.819L6.26 78.604a1.25 1.25 0 002.48.292l1.742-14.785a8.166 8.166 0 016.183-6.949l7.67-2.156 7.126 10.688a1.25 1.25 0 001.84.267l5.45-4.542v8.552a1.25 1.25 0 002.5 0V61.42l5.45 4.542a1.25 1.25 0 001.84-.267L55.665 55l7.71 2.174a8.149 8.149 0 016.14 6.937l1.74 14.785a1.25 1.25 0 001.392 1.095 1.25 1.25 0 001.095-1.387L72 63.819zM25.09 22.5h-.422c.33-11.066 5.103-16.25 14.967-16.25 9.323 0 14.094 4.633 14.875 14.481a5.94 5.94 0 00-5.816-4.574c-1.73.053-3.428.476-4.98 1.24a9.125 9.125 0 01-3.713.988 9.125 9.125 0 01-3.712-.988 12.1 12.1 0 00-4.98-1.24c-4.279 0-5.855 3.647-6.219 6.343zM61.25 31a1.5 1.5 0 01-1.5 1.5H55V25h4.75a1.5 1.5 0 011.5 1.5V31zM40 2.5c15.806 0 19.125 9.855 19.125 18.125a17.128 17.128 0 01-.115 1.875h-1.908C56.75 9.9 51.035 3.75 39.636 3.75 28.237 3.75 22.525 9.9 22.17 22.5h-1.18a17.128 17.128 0 01-.115-1.875C20.875 12.355 24.194 2.5 40 2.5zM18.75 31v-4.5a1.5 1.5 0 011.5-1.5H25v7.5h-4.75a1.5 1.5 0 01-1.5-1.5zm8.75 2.694V23.75c0-.209.071-5.096 3.807-5.096a9.772 9.772 0 014 1.041 11.36 11.36 0 004.688 1.186 11.359 11.359 0 004.687-1.186 9.773 9.773 0 014-1.041c3.747.003 3.818 4.891 3.818 5.096v9.134l-5.898 2.211A3.73 3.73 0 1047.5 37.5c0-.024-.006-.045-.008-.069l4.71-1.766C50.614 41.446 42.616 46.25 40.03 46.25c-2.892 0-12.53-5.935-12.53-12.554v-.002zM45 37.5a1.25 1.25 0 11-2.501 0 1.25 1.25 0 012.5 0zm-4.971 11.25c2.24-.275 4.378-1.1 6.22-2.404v4.387L40 56.983l-6.25-6.25v-4.407a13.794 13.794 0 006.28 2.424zm-7.26 14.4l-5.904-8.856 5.395-1.516 5.889 5.888-5.38 4.484zm14.462 0l-5.375-4.484 5.889-5.888 5.395 1.516-5.909 8.856z"/><path d="M40 73.75A1.25 1.25 0 0038.75 75v3.75a1.25 1.25 0 002.5 0V75A1.25 1.25 0 0040 73.75z"/></g><defs><clipPath id="clip0_6859_439"><path fill="#fff" d="M0 0h80v80H0z"/></clipPath></defs></svg>