<svg width="80" height="80" fill="none" xmlns="http://www.w3.org/2000/svg"><g clip-path="url(#clip0_6859_434)"><path d="M79.983 24.595a4.577 4.577 0 00-1.556-3.488l-12.16-10.93c-1.512-1.36-3.42-2.75-6.1-2.75h-.003c-2.683.002-4.59 1.393-6.102 2.754L41.91 21.119a4.577 4.577 0 00-1.554 3.49l.006 14.04h-8.07c1.46-3.034 2.477-7.826 1.335-11.414-.804-2.525-2.575-4.19-5.12-4.814a1.25 1.25 0 00-1.517.934l-.387 1.697c-1.501 6.611-1.694 7.46-5.841 10.171-2.93 1.915-3.138 2.162-4.96 4.82-.186.272-.391.572-.621.904-.738 1.067-1.682 1.548-3.054 1.56h-.105v-.299a2.827 2.827 0 00-2.824-2.823H2.823A2.827 2.827 0 000 42.208V69.75a2.827 2.827 0 002.823 2.824h6.375a2.827 2.827 0 002.824-2.823v-1.282c.563.197 1.126.406 1.706.623 2.84 1.06 6.059 2.263 10.838 2.263h16.593a5 5 0 001.992-.413c.6.27 1.25.413 1.916.413h.001l30.24-.01A4.698 4.698 0 0080 66.647l-.017-42.053zM9.522 69.75a.328.328 0 01-.324.324H2.823a.328.328 0 01-.323-.323V42.207c0-.175.148-.323.323-.323h6.375c.176 0 .324.148.324.323V69.75zm15.044-.895c-4.327 0-7.192-1.07-9.963-2.105a59.54 59.54 0 00-2.581-.919V45.008h.12c2.184-.02 3.898-.908 5.096-2.64l.626-.911c1.68-2.452 1.68-2.452 4.266-4.141 4.993-3.264 5.361-4.886 6.911-11.71l.07-.309c1.03.547 1.733 1.438 2.134 2.697 1.18 3.704-.68 9.406-2.136 11.086a1.25 1.25 0 00.945 2.068h14.291a2.528 2.528 0 012.526 2.526 2.529 2.529 0 01-2.526 2.526h-9.852a1.25 1.25 0 000 2.5H46.41a2.528 2.528 0 012.525 2.525 2.529 2.529 0 01-2.525 2.526H34.493a1.25 1.25 0 000 2.5h10.619a2.528 2.528 0 012.526 2.526 2.528 2.528 0 01-2.526 2.525h-10.62a1.25 1.25 0 000 2.5h6.667a2.529 2.529 0 012.526 2.526 2.528 2.528 0 01-2.526 2.526H24.566zm50.742-.01l-29.807.01a4.994 4.994 0 00.684-2.526c0-.926-.252-1.794-.69-2.54a5.033 5.033 0 004.643-5.011 5.003 5.003 0 00-1.174-3.225 5.029 5.029 0 002.471-4.327 5.034 5.034 0 00-3.019-4.607c.6-.828.955-1.845.955-2.944a5.031 5.031 0 00-5.026-5.026h-1.483l-.005-14.04c0-.657.237-1.19.725-1.63l12.152-10.94c1.666-1.498 2.95-2.11 4.43-2.11h.003c1.48 0 2.764.61 4.43 2.107l12.16 10.931c.488.44.726.973.726 1.63L77.5 66.65c0 1.21-.983 2.194-2.192 2.194zm-7.634-16.917c.183 1.509-.221 2.886-1.17 3.982-1.114 1.289-2.967 2.153-5.076 2.396v1.59a1.25 1.25 0 01-2.5 0v-1.609c-3.122-.429-5.55-2.403-6.252-5.221a1.25 1.25 0 012.426-.605c.647 2.596 3.26 3.463 5.303 3.412 1.753-.042 3.405-.67 4.209-1.599.488-.563.677-1.233.578-2.045-.233-1.921-1.836-3.025-5.198-3.577-5.35-.878-6.597-3.592-6.7-5.713-.142-2.94 1.916-5.404 5.122-6.131.168-.038.339-.071.513-.099v-1.625a1.25 1.25 0 012.5 0v1.615c2.288.339 4.546 1.664 5.674 4.351a1.25 1.25 0 11-2.305.968c-1.084-2.582-3.709-3.253-5.83-2.772-1.601.363-3.278 1.493-3.176 3.572.031.65.127 2.632 4.607 3.368 1.66.272 6.712 1.101 7.275 5.742zM60.168 24.19a4.456 4.456 0 004.452-4.451 4.456 4.456 0 00-4.452-4.452 4.457 4.457 0 00-4.452 4.452 4.457 4.457 0 004.452 4.451zm0-6.403c1.076 0 1.952.875 1.952 1.951a1.954 1.954 0 01-1.952 1.952 1.954 1.954 0 01-1.952-1.952c0-1.075.876-1.951 1.952-1.951z" fill="#0070B8"/></g><defs><clipPath id="clip0_6859_434"><path fill="#fff" d="M0 0h80v80H0z"/></clipPath></defs></svg>