<svg width="80" height="80" fill="none" xmlns="http://www.w3.org/2000/svg"><g clip-path="url(#clip0_6859_450)" fill="#0070B8"><path d="M76.484 21.64h-12.03a3.52 3.52 0 00-3.516 3.516v29.688a3.519 3.519 0 003.515 3.515h12.031A3.52 3.52 0 0080 54.844V25.156a3.519 3.519 0 00-3.516-3.515zm1.172 33.204a1.172 1.172 0 01-1.172 1.172h-12.03a1.172 1.172 0 01-1.173-1.172V25.156a1.172 1.172 0 011.172-1.172h12.031a1.172 1.172 0 011.172 1.172v29.688zM55.86 0H1.171A1.172 1.172 0 000 1.172v77.656A1.172 1.172 0 001.172 80h54.687a1.172 1.172 0 001.172-1.172V1.172A1.172 1.172 0 0055.86 0zM41.076 2.344l-.755 3.018a1.169 1.169 0 01-1.136.888h-21.34a1.169 1.169 0 01-1.137-.888l-.754-3.018h25.122zm7.36 75.312H32.032V23.75h16.407v53.906zm-18.75 0h-2.343V23.75h2.343v53.906zm-4.687 0H8.594V23.75H25v53.906zm29.688 0H50.78V22.578a1.172 1.172 0 00-1.172-1.172H7.422a1.172 1.172 0 00-1.172 1.172v55.078H2.344V2.344h11.194l.896 3.594a3.512 3.512 0 003.411 2.656h21.34a3.513 3.513 0 003.412-2.656l.897-3.594h11.194v75.312z"/><path d="M18.75 15.156h-2.344a1.172 1.172 0 000 2.344h2.344a1.172 1.172 0 000-2.344zm10.938 0h-2.344a1.172 1.172 0 100 2.344h2.343a1.172 1.172 0 000-2.344zm10.937 0h-2.344a1.172 1.172 0 000 2.344h2.344a1.172 1.172 0 000-2.344zm30.892 13.383a1.171 1.171 0 00-2.097 0l-3.906 7.813a1.172 1.172 0 001.049 1.695h7.812a1.171 1.171 0 001.048-1.695l-3.906-7.813zm-3.06 7.164l2.012-4.02 2.01 4.02h-4.021zm5.918 6.25h-7.813a1.172 1.172 0 00-1.048 1.695l3.906 7.813a1.172 1.172 0 002.097 0l3.906-7.813a1.171 1.171 0 00-1.048-1.695zm-3.906 6.364l-2.011-4.02h4.022l-2.011 4.02z"/></g><defs><clipPath id="clip0_6859_450"><path fill="#fff" d="M0 0h80v80H0z"/></clipPath></defs></svg>