<svg width="27" height="27" fill="none" xmlns="http://www.w3.org/2000/svg"><path d="M13.5 0C6.057 0 0 6.057 0 13.5S6.057 27 13.5 27 27 20.943 27 13.5 20.943 0 13.5 0zm0 25.54c-6.64 0-12.04-5.4-12.04-12.04 0-6.64 5.4-12.04 12.04-12.04 6.64 0 12.04 5.4 12.04 12.04 0 6.64-5.4 12.04-12.04 12.04z" fill="#A68765"/><path d="M13.503 6.568c.402 0 .73-.329.73-.73v-2.19a.732.732 0 00-.73-.729.732.732 0 00-.73.73v2.189c0 .401.329.73.73.73zm0 13.864a.732.732 0 00-.73.73v2.19c0 .4.329.729.73.729.402 0 .73-.328.73-.73v-2.189a.732.732 0 00-.73-.73zM20.43 13.5c0 .401.328.73.73.73h2.189c.401 0 .73-.329.73-.73a.732.732 0 00-.73-.73h-2.19a.732.732 0 00-.73.73zm-13.86 0a.732.732 0 00-.73-.73H3.653a.732.732 0 00-.73.73c0 .401.328.73.73.73H5.84c.401 0 .73-.329.73-.73zm12.35-4.688a.727.727 0 00.513-.216l1.548-1.547a.731.731 0 00-1.033-1.032l-1.547 1.547a.73.73 0 00.518 1.248zM7.565 18.404L6.018 19.95a.731.731 0 00.515 1.248.727.727 0 00.514-.216l1.547-1.547a.731.731 0 000-1.032.723.723 0 00-1.029 0zm11.868 0a.731.731 0 00-1.032 1.032l1.547 1.547a.727.727 0 00.514.216.731.731 0 00.514-1.248l-1.543-1.547zM7.05 6.017a.731.731 0 00-1.032 1.032l1.547 1.547a.727.727 0 00.515.216.731.731 0 00.514-1.248L7.051 6.017zm9.547 3.174l-3.043 3.528-1.883-2.083a.732.732 0 00-1.084.981l2.007 2.219-.558.646a.729.729 0 00.076 1.028c.139.12.307.18.475.18a.744.744 0 00.554-.253l.438-.51.474.521a.721.721 0 001.03.051.731.731 0 00.05-1.032l-.594-.657 3.16-3.667a.729.729 0 00-1.102-.952z" fill="#A68765"/></svg>