<svg width="35" height="35" fill="none" xmlns="http://www.w3.org/2000/svg"><path d="M17.5 35C27.165 35 35 27.165 35 17.5S27.165 0 17.5 0 0 7.835 0 17.5 7.835 35 17.5 35z" fill="url(#paint0_linear_6860_697)"/><path d="M21.037 8.75h-7.074a5.22 5.22 0 00-5.213 5.213v7.074a5.22 5.22 0 005.213 5.213h7.074a5.218 5.218 0 005.213-5.213v-7.074a5.22 5.22 0 00-5.213-5.213zm3.454 12.287a3.454 3.454 0 01-3.454 3.454h-7.074a3.454 3.454 0 01-3.454-3.454v-7.074a3.454 3.454 0 013.454-3.454h7.074a3.454 3.454 0 013.454 3.454v7.074z" fill="#fff"/><path d="M17.498 12.976a4.526 4.526 0 10-.005 9.052 4.526 4.526 0 00.005-9.052zm0 7.287a2.762 2.762 0 110-5.525 2.762 2.762 0 010 5.525zm4.551-6.168a1.119 1.119 0 100-2.238 1.119 1.119 0 000 2.238z" fill="#fff"/><defs><linearGradient id="paint0_linear_6860_697" x1="17.5" y1="34.839" x2="17.5" y2="2.372" gradientUnits="userSpaceOnUse"><stop stop-color="#E09B3D"/><stop offset=".24" stop-color="#C74C4D"/><stop offset=".65" stop-color="#C21975"/><stop offset="1" stop-color="#7024C4"/></linearGradient></defs></svg>