<svg width="197" height="37" fill="none" xmlns="http://www.w3.org/2000/svg"><g clip-path="url(#clip0_6859_357)" fill="#fff"><path d="M57.092 10.554h-8.354L44.79 29.857h5.412l1.028-5.108h4.097c5.93 0 9.76-3.155 9.76-8.033-.004-3.917-2.916-6.162-7.994-6.162zM55.578 20.63h-3.515l1.218-5.957h3.069c2.132 0 3.262.87 3.262 2.517-.004 2.187-1.475 3.44-4.034 3.44zm19.419-5.92c-5.445 0-9.247 3.543-9.247 8.618 0 4.115 3.182 6.776 8.105 6.776 2.503 0 4.665-.626 6.435-1.866l-2.12-3.123c-1.015.758-2.326 1.175-3.713 1.175-2.237 0-3.426-.837-3.633-2.559l-.016-.132h11.404c.131-.584.291-1.437.291-2.368-.004-3.959-2.95-6.521-7.506-6.521zm2.744 6.335H71.09l.05-.152c.582-1.705 1.86-2.649 3.6-2.649.97 0 1.766.28 2.301.816.472.47.712 1.116.7 1.87v.116zM91.307 16.6l-.283.28.392-1.919H86.52l-3.035 14.896h5.184l1.467-7.052c.502-2.447 1.977-3.638 4.514-3.638.4 0 .695.025 1.134.07l.893-4.527c-2.364.029-4.122.647-5.37 1.89zm9.926 13.257l3.034-14.896h-5.15l-3.039 14.896h5.155zm26.484-15.147c-2.238 0-4.172.836-5.592 2.418l-.114.128-.08-.153c-.818-1.52-2.478-2.393-4.548-2.393-1.745 0-3.317.605-4.543 1.755l-.274.255.358-1.759h-4.897l-3.035 14.896h5.184l1.522-7.469c.467-2.265 1.622-3.415 3.43-3.415 1.311 0 2.061.787 2.061 2.155 0 .366-.042.733-.118 1.059l-1.597 7.674h5.18l1.551-7.526c.468-2.229 1.61-3.357 3.401-3.357 1.328 0 2.061.753 2.061 2.125 0 .38-.038.721-.118 1.084l-1.572 7.674h5.18l1.664-8.28a8.645 8.645 0 00.198-1.85c.005-3.143-1.98-5.021-5.302-5.021zm17.077 0c-5.446 0-9.247 3.543-9.247 8.618 0 4.115 3.182 6.776 8.105 6.776 2.503 0 4.665-.626 6.431-1.866l-2.12-3.123c-1.011.758-2.326 1.175-3.713 1.175-2.238 0-3.426-.837-3.633-2.559l-.017-.132h11.405c.131-.584.291-1.437.291-2.368.004-3.959-2.942-6.521-7.502-6.521zm2.748 6.335h-6.651l.051-.152c.581-1.705 1.858-2.649 3.599-2.649.969 0 1.766.28 2.301.816.472.47.712 1.116.7 1.87v.116zm15.27-9.457h-5.18l-.801 3.934h-2.254l-.78 3.728h2.284l-1.058 5.137a6.285 6.285 0 00-.139 1.4c0 2.707 1.909 4.322 5.108 4.322 1.079 0 2.618-.149 3.895-.837l-.641-3.419c-.556.268-1.037.387-1.538.387-.999 0-1.547-.498-1.547-1.4 0-.132.021-.276.046-.445l.013-.074 1.049-5.067h3.511l.755-3.728h-3.515l.792-3.938zm12.513 3.122c-5.445 0-9.247 3.543-9.247 8.618 0 4.115 3.182 6.776 8.105 6.776 2.503 0 4.665-.626 6.436-1.866l-2.12-3.123c-1.012.758-2.327 1.175-3.713 1.175-2.238 0-3.427-.837-3.633-2.559l-.017-.132h11.404c.131-.584.291-1.437.291-2.368 0-3.959-2.946-6.521-7.506-6.521zm2.744 6.335h-6.651l.051-.152c.581-1.705 1.858-2.649 3.599-2.649.969 0 1.766.28 2.301.816.472.47.712 1.116.7 1.87v.116zm13.283-4.16l.392-1.92h-4.897l-3.035 14.896h5.184l1.467-7.053c.502-2.447 1.977-3.637 4.514-3.637.4 0 .695.025 1.134.07l.893-4.527c-2.36.025-4.117.643-5.365 1.89l-.287.28zm-88.883-3.831c2.031 0 3.393-1.199 3.393-2.982 0-1.426-1.244-2.423-3.022-2.423-1.981 0-3.363 1.19-3.363 2.896 0 1.48 1.23 2.509 2.992 2.509zm-75.082 3.362l1.487-2.958-.817-2.678H8.177l2.183-3.72-3.208-5.396L0 13.845 6.92 25.49l3.178-5.412-2.179-3.662h19.468z"/><path d="M35.542.087l-.025-.083L9.631 0l3.203 5.388h18.405l2.596 8.478-4.012 7.967h-.548l-6.777-.005v.005h-1.24v-.005H12.48l-3.132 5.33L6.562 37h5.644l2.769-9.784h18.119l6.667-13.235.021-.041L35.542.087z"/></g><defs><clipPath id="clip0_6859_357"><path fill="#fff" d="M0 0h197v37H0z"/></clipPath></defs></svg>