<svg width="27" height="27" fill="none" xmlns="http://www.w3.org/2000/svg"><path d="M13.5.844a9.281 9.281 0 00-9.281 9.281c0 4.902 8.268 15.272 8.623 15.72a.844.844 0 001.316 0c.354-.448 8.623-10.818 8.623-15.72A9.281 9.281 0 0013.5.844zm0 23.102c-2.607-3.375-7.594-10.547-7.594-13.821a7.594 7.594 0 1115.188 0c0 3.274-4.987 10.429-7.594 13.82z" fill="#A68765"/><path d="M13.5 4.219a5.063 5.063 0 100 10.125 5.063 5.063 0 000-10.125zm0 8.437a3.375 3.375 0 110-6.75 3.375 3.375 0 010 6.75z" fill="#A68765"/></svg>