<svg width="27" height="27" fill="none" xmlns="http://www.w3.org/2000/svg"><path d="M19.787 17.66a2.532 2.532 0 00-3.586 0l-1.224 1.223a22.458 22.458 0 01-6.86-6.86L9.342 10.8a2.532 2.532 0 000-3.586l-2.388-2.38a2.472 2.472 0 00-1.78-.742 2.531 2.531 0 00-1.797.743L2.228 5.974a5.375 5.375 0 00-1.384 4.43c.27 3.163 2.346 6.969 5.544 10.175 3.198 3.206 7.045 5.273 10.21 5.577.235.013.472.013.708 0a5.122 5.122 0 003.72-1.384l1.14-1.147a2.53 2.53 0 00.742-1.797 2.473 2.473 0 00-.742-1.78l-2.38-2.388zm1.19 4.775l-1.148 1.14a3.857 3.857 0 01-3.088.843c-2.742-.236-6.236-2.177-9.121-5.063-2.886-2.885-4.827-6.353-5.088-9.095a3.822 3.822 0 01.844-3.088l1.19-1.148a.844.844 0 01.598-.244.844.844 0 01.6.244L8.15 8.437a.844.844 0 010 1.19l-1.687 1.688a.844.844 0 00-.135 1.02 23.191 23.191 0 003.653 4.709 23.196 23.196 0 004.708 3.653.844.844 0 001.021-.135l1.688-1.687a.844.844 0 011.19 0l2.387 2.387a.843.843 0 01.245.6.844.844 0 01-.245.573zm1.467-17.887A12.588 12.588 0 0013.5.844a.844.844 0 100 1.687 10.968 10.968 0 0110.969 11.062.844.844 0 101.687 0 12.578 12.578 0 00-3.712-9.045z" fill="#A68765"/><path d="M17.64 9.374a5.063 5.063 0 011.493 3.637.844.844 0 001.687 0 6.75 6.75 0 00-6.75-6.835.844.844 0 100 1.688 5.063 5.063 0 013.57 1.51z" fill="#A68765"/></svg>