<svg width="80" height="80" viewBox="0 0 80 80" fill="none" xmlns="http://www.w3.org/2000/svg">
<g clip-path="url(#clip0_6859_439)">
<path d="M71.9998 63.8187C71.7432 61.6765 70.8418 59.6627 69.4149 58.0443C67.988 56.4259 66.1031 55.2793 64.0098 54.7562L48.7498 50.4637V44.5437C51.7611 42.075 54.3811 38.72 54.8948 35H59.7498C60.8107 35 61.8281 34.5786 62.5783 33.8284C63.3284 33.0783 63.7498 32.0609 63.7498 31V26.5C63.7477 25.7478 63.533 25.0116 63.1304 24.3762C62.7279 23.7407 62.154 23.2321 61.4748 22.9087C61.5685 22.151 61.6186 21.3885 61.6248 20.625C61.6248 12.9212 58.8136 0 39.9998 0C21.1861 0 18.3748 12.9212 18.3748 20.625C18.3807 21.3885 18.4303 22.151 18.5236 22.9087C17.8447 23.2322 17.271 23.741 16.8687 24.3764C16.4664 25.0118 16.2519 25.748 16.2498 26.5V31C16.2498 32.0609 16.6713 33.0783 17.4214 33.8284C18.1715 34.5786 19.189 35 20.2498 35H25.1086C25.6223 38.71 28.2336 42.0588 31.2523 44.525V50.4637L16.0286 54.75C13.9284 55.2688 12.0357 56.4141 10.6017 58.0339C9.1677 59.6536 8.26026 61.6712 7.99982 63.8187L6.25857 78.6038C6.21983 78.9329 6.31342 79.264 6.51877 79.5242C6.72411 79.7844 7.02439 79.9524 7.35357 79.9912C7.40209 79.9972 7.45094 80.0001 7.49982 80C7.80577 79.9997 8.10097 79.8871 8.32951 79.6837C8.55804 79.4803 8.70403 79.2001 8.73982 78.8962L10.4811 64.1113C10.6821 62.4615 11.3817 60.9123 12.4864 59.6707C13.5911 58.429 15.0484 57.554 16.6636 57.1625L24.3348 55.0063L31.4598 65.6937C31.5572 65.8394 31.684 65.9629 31.8322 66.0564C31.9803 66.1498 32.1465 66.2111 32.3198 66.2363C32.3793 66.2458 32.4395 66.2504 32.4998 66.25C32.792 66.2502 33.0751 66.1481 33.2998 65.9613L38.7498 61.4187V69.9713C38.7498 70.3028 38.8815 70.6207 39.1159 70.8551C39.3504 71.0896 39.6683 71.2213 39.9998 71.2213C40.3313 71.2213 40.6493 71.0896 40.8837 70.8551C41.1181 70.6207 41.2498 70.3028 41.2498 69.9713V61.4187L46.6998 65.9613C46.9245 66.1481 47.2076 66.2502 47.4998 66.25C47.5601 66.2504 47.6203 66.2458 47.6798 66.2363C47.8532 66.2111 48.0193 66.1498 48.1675 66.0564C48.3156 65.9629 48.4425 65.8394 48.5398 65.6937L55.6648 55L63.3748 57.1737C64.9817 57.5698 66.4298 58.4458 67.5266 59.6851C68.6234 60.9243 69.3169 62.4682 69.5148 64.1113L71.2548 78.8962C71.2907 79.201 71.4374 79.4818 71.667 79.6854C71.8966 79.8889 72.193 80.0009 72.4998 80C72.5491 80.0002 72.5984 79.9972 72.6473 79.9912C72.9765 79.9524 73.2768 79.7844 73.4821 79.5242C73.6875 79.264 73.7811 78.9329 73.7423 78.6038L71.9998 63.8187ZM25.0911 22.5H24.6686C24.9998 11.4338 29.7723 6.25 39.6361 6.25C48.9586 6.25 53.7298 10.8825 54.5111 20.7312C54.202 19.4233 53.4585 18.2589 52.4021 17.4282C51.3457 16.5974 50.0387 16.1495 48.6948 16.1575C46.9653 16.21 45.2671 16.6329 43.7148 17.3975C42.5614 17.9864 41.2959 18.323 40.0023 18.385C38.7088 18.323 37.4432 17.9864 36.2898 17.3975C34.7376 16.6329 33.0394 16.21 31.3098 16.1575C27.0311 16.1575 25.4548 19.8037 25.0911 22.5ZM61.2498 31C61.2498 31.3978 61.0918 31.7794 60.8105 32.0607C60.5292 32.342 60.1477 32.5 59.7498 32.5H54.9998V25H59.7498C60.1477 25 60.5292 25.158 60.8105 25.4393C61.0918 25.7206 61.2498 26.1022 61.2498 26.5V31ZM39.9998 2.5C55.8061 2.5 59.1248 12.355 59.1248 20.625C59.1208 21.2516 59.0824 21.8776 59.0098 22.5H57.1023C56.7498 9.9 51.0348 3.75 39.6361 3.75C28.2373 3.75 22.5248 9.9 22.1698 22.5H20.9911C20.9185 21.8776 20.8801 21.2516 20.8761 20.625C20.8748 12.355 24.1936 2.5 39.9998 2.5ZM18.7498 31V26.5C18.7498 26.1022 18.9079 25.7206 19.1892 25.4393C19.4705 25.158 19.852 25 20.2498 25H24.9998V32.5H20.2498C19.852 32.5 19.4705 32.342 19.1892 32.0607C18.9079 31.7794 18.7498 31.3978 18.7498 31ZM27.4998 33.6937V23.75C27.4998 23.5413 27.5711 18.6538 31.3073 18.6538C32.6996 18.7117 34.0635 19.0667 35.3073 19.695C36.7666 20.4223 38.3653 20.8268 39.9948 20.8813C41.6244 20.8268 43.2231 20.4223 44.6823 19.695C45.9262 19.0667 47.29 18.7117 48.6823 18.6538C52.4286 18.6575 52.4998 23.545 52.4998 23.75V32.8838L46.6023 35.095C46.0323 34.43 45.2464 33.9868 44.3824 33.8432C43.5183 33.6996 42.6313 33.8648 41.8769 34.3098C41.1224 34.7547 40.5487 35.4511 40.2563 36.2767C39.9639 37.1024 39.9715 38.0046 40.2777 38.8252C40.584 39.6458 41.1693 40.3324 41.9311 40.7646C42.6929 41.1969 43.5826 41.3471 44.4441 41.189C45.3056 41.031 46.084 40.5746 46.6427 39.9001C47.2014 39.2256 47.5049 38.3759 47.4998 37.5C47.4998 37.4762 47.4936 37.455 47.4923 37.4313L52.2023 35.665C50.6136 41.4463 42.6161 46.25 40.0286 46.25C37.1373 46.25 27.4998 40.315 27.4998 33.6963V33.6937ZM44.9998 37.5C44.9998 37.7472 44.9265 37.9889 44.7892 38.1945C44.6518 38.4 44.4566 38.5602 44.2282 38.6549C43.9998 38.7495 43.7484 38.7742 43.506 38.726C43.2635 38.6777 43.0408 38.5587 42.8659 38.3839C42.6911 38.2091 42.5721 37.9863 42.5238 37.7439C42.4756 37.5014 42.5004 37.2501 42.595 37.0216C42.6896 36.7932 42.8498 36.598 43.0554 36.4607C43.2609 36.3233 43.5026 36.25 43.7498 36.25C44.0813 36.25 44.3993 36.3817 44.6337 36.6161C44.8681 36.8505 44.9998 37.1685 44.9998 37.5ZM40.0286 48.75C42.2691 48.4752 44.4066 47.6493 46.2498 46.3462V50.7325L39.9998 56.9825L33.7498 50.7325V46.3263C35.6105 47.6402 37.7676 48.4729 40.0286 48.75ZM32.7686 63.15L26.8648 54.2938L32.2598 52.7775L38.1486 58.6662L32.7686 63.15ZM47.2311 63.15L41.8561 58.6662L47.7448 52.7775L53.1398 54.2938L47.2311 63.15Z" fill="#0070B8"/>
<path d="M40 73.75C39.6685 73.75 39.3505 73.8817 39.1161 74.1161C38.8817 74.3505 38.75 74.6685 38.75 75V78.75C38.75 79.0815 38.8817 79.3995 39.1161 79.6339C39.3505 79.8683 39.6685 80 40 80C40.3315 80 40.6495 79.8683 40.8839 79.6339C41.1183 79.3995 41.25 79.0815 41.25 78.75V75C41.25 74.6685 41.1183 74.3505 40.8839 74.1161C40.6495 73.8817 40.3315 73.75 40 73.75Z" fill="#0070B8"/>
</g>
<defs>
<clipPath id="clip0_6859_439">
<rect width="80" height="80" fill="white"/>
</clipPath>
</defs>
</svg>
