<svg width="80" height="80" viewBox="0 0 80 80" fill="none" xmlns="http://www.w3.org/2000/svg">
<g clip-path="url(#clip0_6859_450)">
<path d="M76.4844 21.6406H64.4531C63.521 21.6415 62.6272 22.0121 61.9681 22.6712C61.309 23.3304 60.9383 24.2241 60.9375 25.1562V54.8438C60.9383 55.7759 61.309 56.6696 61.9681 57.3288C62.6272 57.9879 63.521 58.3585 64.4531 58.3594H76.4844C77.4165 58.3585 78.3103 57.9879 78.9694 57.3288C79.6285 56.6696 79.9992 55.7759 80 54.8438V25.1562C79.9992 24.2241 79.6285 23.3304 78.9694 22.6712C78.3103 22.0121 77.4165 21.6415 76.4844 21.6406ZM77.6562 54.8438C77.6562 55.1546 77.5328 55.4526 77.313 55.6724C77.0932 55.8922 76.7952 56.0156 76.4844 56.0156H64.4531C64.1423 56.0156 63.8443 55.8922 63.6245 55.6724C63.4047 55.4526 63.2812 55.1546 63.2812 54.8438V25.1562C63.2812 24.8454 63.4047 24.5474 63.6245 24.3276C63.8443 24.1078 64.1423 23.9844 64.4531 23.9844H76.4844C76.7952 23.9844 77.0932 24.1078 77.313 24.3276C77.5328 24.5474 77.6562 24.8454 77.6562 25.1562V54.8438Z" fill="#0070B8"/>
<path d="M55.8594 0H1.17188C0.861074 0 0.563003 0.123465 0.343234 0.343234C0.123465 0.563003 0 0.861074 0 1.17188L0 78.8281C0 79.1389 0.123465 79.437 0.343234 79.6568C0.563003 79.8765 0.861074 80 1.17188 80H55.8594C56.1702 80 56.4683 79.8765 56.688 79.6568C56.9078 79.437 57.0312 79.1389 57.0312 78.8281V1.17188C57.0312 0.861074 56.9078 0.563003 56.688 0.343234C56.4683 0.123465 56.1702 0 55.8594 0V0ZM41.0766 2.34375L40.3219 5.3625C40.259 5.61612 40.1129 5.84136 39.907 6.00224C39.7011 6.16311 39.4472 6.25034 39.1859 6.25H17.8453C17.584 6.25034 17.3301 6.16311 17.1242 6.00224C16.9183 5.84136 16.7723 5.61612 16.7094 5.3625L15.9547 2.34375H41.0766ZM48.4375 77.6562H32.0312V23.75H48.4375V77.6562ZM29.6875 77.6562H27.3438V23.75H29.6875V77.6562ZM25 77.6562H8.59375V23.75H25V77.6562ZM54.6875 77.6562H50.7812V22.5781C50.7812 22.2673 50.6578 21.9693 50.438 21.7495C50.2183 21.5297 49.9202 21.4062 49.6094 21.4062H7.42188C7.11107 21.4062 6.813 21.5297 6.59323 21.7495C6.37346 21.9693 6.25 22.2673 6.25 22.5781V77.6562H2.34375V2.34375H13.5375L14.4344 5.9375C14.6253 6.6972 15.0647 7.37126 15.6828 7.85255C16.3008 8.33384 17.062 8.59473 17.8453 8.59375H39.1859C39.9693 8.59473 40.7304 8.33384 41.3485 7.85255C41.9665 7.37126 42.4059 6.6972 42.5969 5.9375L43.4937 2.34375H54.6875V77.6562Z" fill="#0070B8"/>
<path d="M18.75 15.1562H16.4062C16.0954 15.1562 15.7974 15.2797 15.5776 15.4995C15.3578 15.7193 15.2344 16.0173 15.2344 16.3281C15.2344 16.6389 15.3578 16.937 15.5776 17.1568C15.7974 17.3765 16.0954 17.5 16.4062 17.5H18.75C19.0608 17.5 19.3589 17.3765 19.5786 17.1568C19.7984 16.937 19.9219 16.6389 19.9219 16.3281C19.9219 16.0173 19.7984 15.7193 19.5786 15.4995C19.3589 15.2797 19.0608 15.1562 18.75 15.1562Z" fill="#0070B8"/>
<path d="M29.6875 15.1562H27.3438C27.0329 15.1562 26.7349 15.2797 26.5151 15.4995C26.2953 15.7193 26.1719 16.0173 26.1719 16.3281C26.1719 16.6389 26.2953 16.937 26.5151 17.1568C26.7349 17.3765 27.0329 17.5 27.3438 17.5H29.6875C29.9983 17.5 30.2964 17.3765 30.5161 17.1568C30.7359 16.937 30.8594 16.6389 30.8594 16.3281C30.8594 16.0173 30.7359 15.7193 30.5161 15.4995C30.2964 15.2797 29.9983 15.1562 29.6875 15.1562Z" fill="#0070B8"/>
<path d="M40.625 15.1562H38.2812C37.9704 15.1562 37.6724 15.2797 37.4526 15.4995C37.2328 15.7193 37.1094 16.0173 37.1094 16.3281C37.1094 16.6389 37.2328 16.937 37.4526 17.1568C37.6724 17.3765 37.9704 17.5 38.2812 17.5H40.625C40.9358 17.5 41.2339 17.3765 41.4536 17.1568C41.6734 16.937 41.7969 16.6389 41.7969 16.3281C41.7969 16.0173 41.6734 15.7193 41.4536 15.4995C41.2339 15.2797 40.9358 15.1562 40.625 15.1562Z" fill="#0070B8"/>
<path d="M71.5171 28.539C71.4199 28.3442 71.2703 28.1803 71.0851 28.0658C70.8999 27.9513 70.6864 27.8906 70.4687 27.8906C70.251 27.8906 70.0375 27.9513 69.8523 28.0658C69.6672 28.1803 69.5175 28.3442 69.4203 28.539L65.514 36.3515C65.4248 36.5301 65.3828 36.7286 65.3918 36.9281C65.4009 37.1276 65.4608 37.3215 65.5658 37.4913C65.6709 37.6611 65.8175 37.8013 65.992 37.8985C66.1664 37.9958 66.3628 38.0468 66.5625 38.0468H74.375C74.5746 38.0468 74.771 37.9958 74.9455 37.8985C75.1199 37.8013 75.2666 37.6611 75.3716 37.4913C75.4766 37.3215 75.5365 37.1276 75.5456 36.9281C75.5547 36.7286 75.5126 36.5301 75.4234 36.3515L71.5171 28.539ZM68.4578 35.703L70.4687 31.6827L72.4796 35.703H68.4578Z" fill="#0070B8"/>
<path d="M74.375 41.9531H66.5625C66.3628 41.9531 66.1664 42.0042 65.992 42.1014C65.8175 42.1986 65.6709 42.3388 65.5658 42.5086C65.4608 42.6785 65.4009 42.8723 65.3918 43.0718C65.3828 43.2713 65.4248 43.4698 65.514 43.6484L69.4203 51.4609C69.5175 51.6557 69.6672 51.8196 69.8523 51.9341C70.0375 52.0486 70.251 52.1093 70.4687 52.1093C70.6864 52.1093 70.8999 52.0486 71.0851 51.9341C71.2703 51.8196 71.4199 51.6557 71.5171 51.4609L75.4234 43.6484C75.5126 43.4698 75.5547 43.2713 75.5456 43.0718C75.5365 42.8723 75.4766 42.6785 75.3716 42.5086C75.2666 42.3388 75.1199 42.1986 74.9455 42.1014C74.771 42.0042 74.5746 41.9531 74.375 41.9531ZM70.4687 48.3172L68.4578 44.2969H72.4796L70.4687 48.3172Z" fill="#0070B8"/>
</g>
<defs>
<clipPath id="clip0_6859_450">
<rect width="80" height="80" fill="white"/>
</clipPath>
</defs>
</svg>
