<svg width="80" height="80" viewBox="0 0 80 80" fill="none" xmlns="http://www.w3.org/2000/svg">
<path d="M79.6359 37.8558L73.4375 23.2613C72.6409 21.3852 70.803 20.2198 68.6406 20.2198H52.622V14.5664C52.622 12.1541 50.6594 10.1914 48.247 10.1914H4.37484C1.96266 10.1914 0 12.1541 0 14.5664V56.9109C0 59.3233 1.96266 61.2859 4.37484 61.2859H10.4142C11.0302 66.0866 15.1397 69.8095 20.1052 69.8095C25.0705 69.8095 29.18 66.0866 29.7959 61.2859H55.37C55.9859 66.0866 60.0955 69.8095 65.0608 69.8095C70.0263 69.8095 74.1358 66.0866 74.7517 61.2859H76.4062C78.388 61.2859 80 59.6738 80 57.6922V39.6353C80 39.0066 79.8844 38.4412 79.6359 37.8558ZM76.4692 36.7947H58.4492V27.9473H72.7116L76.4692 36.7947ZM2.5 56.9109V14.5664C2.5 13.5325 3.34109 12.6914 4.37484 12.6914H48.247C49.2809 12.6914 50.122 13.5325 50.122 14.5664V21.4698V58.7859H29.7961C29.1802 53.9853 25.0706 50.2623 20.1053 50.2623C15.1398 50.2623 11.0303 53.9853 10.4144 58.7859H4.37484C3.34109 58.7859 2.5 57.9448 2.5 56.9109ZM20.1053 67.3095C16.0945 67.3095 12.8316 64.0466 12.8316 60.0359C12.8316 56.0253 16.0945 52.7623 20.1053 52.7623C24.1159 52.7623 27.3789 56.0252 27.3789 60.0359C27.3789 64.0467 24.1159 67.3095 20.1053 67.3095ZM65.0611 67.3095C61.0505 67.3095 57.7875 64.0466 57.7875 60.0359C57.7875 56.0253 61.0505 52.7623 65.0611 52.7623C69.0719 52.7623 72.3348 56.0252 72.3348 60.0359C72.3348 64.0467 69.0719 67.3095 65.0611 67.3095ZM76.4062 58.7859H74.752C74.1361 53.9853 70.0266 50.2623 65.0611 50.2623C60.0958 50.2623 55.9862 53.9853 55.3703 58.7859H52.6222V22.7197H68.6406C69.7825 22.7197 70.7387 23.3016 71.1366 24.2383L71.65 25.4472H57.1994C56.5091 25.4472 55.9494 26.0069 55.9494 26.6972V38.0447C55.9494 38.735 56.5091 39.2947 57.1994 39.2947H77.4714C77.4895 39.403 77.5002 39.5134 77.5002 39.6353V47.4137H75.577C74.8867 47.4137 74.327 47.9734 74.327 48.6637C74.327 49.3541 74.8867 49.9137 75.577 49.9137H77.5V57.6922C77.5 58.2952 77.0094 58.7859 76.4062 58.7859ZM65.0611 55.4409C62.5275 55.4409 60.4663 57.5022 60.4663 60.0359C60.4663 62.5697 62.5275 64.6309 65.0611 64.6309C67.5948 64.6309 69.6561 62.5697 69.6561 60.0359C69.6561 57.5022 67.5947 55.4409 65.0611 55.4409ZM65.0611 62.1309C63.9059 62.1309 62.9663 61.1911 62.9663 60.0359C62.9663 58.8808 63.9061 57.9409 65.0611 57.9409C66.2164 57.9409 67.1561 58.8808 67.1561 60.0359C67.1561 61.1911 66.2162 62.1309 65.0611 62.1309ZM20.1053 55.4409C17.5716 55.4409 15.5103 57.5022 15.5103 60.0359C15.5103 62.5697 17.5716 64.6309 20.1053 64.6309C22.6389 64.6309 24.7002 62.5697 24.7002 60.0359C24.7002 57.5022 22.6389 55.4409 20.1053 55.4409ZM20.1053 62.1309C18.95 62.1309 18.0103 61.1911 18.0103 60.0359C18.0103 58.8808 18.9502 57.9409 20.1053 57.9409C21.2605 57.9409 22.2002 58.8808 22.2002 60.0359C22.2002 61.1911 21.2603 62.1309 20.1053 62.1309ZM34.3464 36.3587C34.3464 37.0491 33.7867 37.6087 33.0964 37.6087H12.7644C12.0741 37.6087 11.5144 37.0491 11.5144 36.3587C11.5144 35.6684 12.0741 35.1087 12.7644 35.1087H33.0964C33.7867 35.1087 34.3464 35.6683 34.3464 36.3587ZM9.60031 22.7845C8.91 22.7845 8.35031 22.2248 8.35031 21.5345C8.35031 20.8442 8.91 20.2845 9.60031 20.2845H29.9323C30.6227 20.2845 31.1823 20.8442 31.1823 21.5345C31.1823 22.2248 30.6227 22.7845 29.9323 22.7845H9.60031ZM17.3348 27.6966H37.6669C38.3572 27.6966 38.9169 28.2563 38.9169 28.9466C38.9169 29.6369 38.3572 30.1966 37.6669 30.1966H17.3348C16.6445 30.1966 16.0848 29.6369 16.0848 28.9466C16.0848 28.2563 16.6445 27.6966 17.3348 27.6966Z" fill="#0070B8"/>
</svg>
