<svg width="80" height="80" viewBox="0 0 80 80" fill="none" xmlns="http://www.w3.org/2000/svg">
<g clip-path="url(#clip0_6859_434)">
<path d="M79.9831 24.5952C79.9825 23.2273 79.4445 22.0209 78.4273 21.1068L66.2673 10.1762C64.7548 8.81695 62.8478 7.42773 60.1666 7.42773C60.1658 7.42773 60.1645 7.42773 60.1637 7.42773C57.4808 7.42867 55.5736 8.81977 54.0619 10.1805L41.9097 21.1195C40.893 22.0345 40.3559 23.2413 40.3564 24.6093L40.362 38.6484H32.2916C33.7522 35.6151 34.7695 30.8235 33.627 27.2355C32.823 24.7104 31.0522 23.0457 28.5063 22.4213C28.1812 22.3415 27.838 22.3955 27.5531 22.571C27.2683 22.7463 27.0656 23.0288 26.9905 23.3548C26.8519 23.9568 26.7236 24.5212 26.6031 25.0516C25.1017 31.6632 24.9088 32.5129 20.7617 35.2234C17.832 37.1382 17.6241 37.3854 15.802 40.0435C15.6159 40.3151 15.4106 40.6145 15.1808 40.947C14.443 42.0141 13.4991 42.4954 12.1273 42.5074L12.0216 42.5077V42.2084C12.0216 40.6515 10.755 39.3849 9.19797 39.3849H2.82344C1.26656 39.3849 0 40.6515 0 42.2084V69.7495C0 71.3065 1.26656 72.573 2.82344 72.573H9.19812C10.755 72.573 12.0217 71.3065 12.0217 69.7495V68.4682C12.5852 68.6648 13.1484 68.8745 13.7284 69.091C16.5683 70.1516 19.7869 71.3538 24.5658 71.3538H41.1589C41.8662 71.3538 42.5394 71.2062 43.1505 70.9413C43.7505 71.2112 44.4005 71.3538 45.0669 71.3538H45.068L75.3086 71.3434C77.8964 71.3423 80.0009 69.2362 79.9998 66.6484L79.9831 24.5952ZM9.52172 69.7495C9.52172 69.9249 9.37359 70.073 9.19812 70.073H2.82344C2.64812 70.073 2.5 69.9249 2.5 69.7495V42.2084C2.5 42.033 2.64812 41.8849 2.82344 41.8849H9.19812C9.37359 41.8849 9.52172 42.033 9.52172 42.2084V69.7495ZM24.5658 68.8538C20.2386 68.8538 17.3738 67.7837 14.6033 66.749C13.7669 66.4366 12.9092 66.1163 12.0219 65.8304V45.0077L12.1423 45.0074C14.3259 44.9884 16.0403 44.1004 17.2375 42.3684C17.4694 42.033 17.6764 41.731 17.8642 41.457C19.5445 39.0055 19.5445 39.0055 22.1297 37.3159C27.123 34.0523 27.4911 32.4305 29.0411 25.6052C29.0641 25.504 29.0873 25.4012 29.1109 25.2973C30.1411 25.8441 30.8441 26.7351 31.245 27.994C32.4244 31.6977 30.5645 37.3998 29.1094 39.0799C28.7891 39.4498 28.7141 39.9726 28.9173 40.4177C29.1208 40.8629 29.565 41.1484 30.0544 41.1484H44.345C45.7377 41.1484 46.8706 42.2813 46.8706 43.674C46.8706 45.0666 45.7377 46.1998 44.345 46.1998H34.4927C33.8023 46.1998 33.2427 46.7595 33.2427 47.4498C33.2427 48.1401 33.8023 48.6998 34.4927 48.6998H46.4097C47.8023 48.6998 48.9353 49.8327 48.9353 51.2254C48.9353 52.618 47.8023 53.7512 46.4097 53.7512H34.4927C33.8023 53.7512 33.2427 54.3109 33.2427 55.0012C33.2427 55.6915 33.8023 56.2512 34.4927 56.2512H45.1119C46.5045 56.2512 47.6375 57.3841 47.6375 58.7768C47.6375 60.1695 46.5045 61.3024 45.1119 61.3024H34.4927C33.8023 61.3024 33.2427 61.8621 33.2427 62.5524C33.2427 63.2427 33.8023 63.8024 34.4927 63.8024H41.1591C42.5517 63.8024 43.6848 64.9355 43.6848 66.3282C43.6848 67.7209 42.5519 68.8538 41.1591 68.8538H24.5658ZM75.3077 68.8434L45.5013 68.8537C45.9348 68.111 46.1847 67.2485 46.1847 66.3282C46.1847 65.4021 45.933 64.5338 45.4944 63.788C48.0875 63.5918 50.1375 61.4191 50.1375 58.7768C50.1375 57.5507 49.6961 56.4257 48.9639 55.5524C50.442 54.6765 51.4353 53.0646 51.4353 51.2254C51.4353 49.1671 50.1914 47.394 48.4161 46.6177C49.0164 45.7898 49.3706 44.7726 49.3706 43.674C49.3706 40.9029 47.1161 38.6484 44.345 38.6484H42.8622L42.8566 24.6085C42.8564 23.951 43.0938 23.4176 43.5823 22.9777L55.7345 12.0387C57.3997 10.5398 58.6833 9.92836 60.1648 9.92773H60.1667C61.647 9.92773 62.9308 10.5385 64.5964 12.0354L76.7564 22.966C77.2453 23.4055 77.4831 23.9388 77.4834 24.5963L77.5 66.6493C77.5005 67.8587 76.517 68.8429 75.3077 68.8434ZM67.6739 51.9273C67.857 53.4359 67.4527 54.8127 66.5047 55.9088C65.3897 57.1979 63.5369 58.0621 61.4283 58.3046V59.8946C61.4283 60.5849 60.8686 61.1446 60.1783 61.1446C59.488 61.1446 58.9283 60.5849 58.9283 59.8946V58.2865C55.8058 57.8574 53.3786 55.883 52.6759 53.0646C52.5089 52.3948 52.9166 51.7163 53.5864 51.5493C54.2567 51.3834 54.9347 51.7901 55.1017 52.4598C55.7492 55.0565 58.3623 55.9229 60.4045 55.872C62.158 55.8302 63.8102 55.2029 64.6139 54.2735C65.1017 53.7096 65.2909 53.0405 65.1923 52.2285C64.9591 50.3066 63.3558 49.2035 59.9937 48.6515C54.6431 47.7729 53.3972 45.0593 53.2944 42.9377C53.1516 39.9979 55.2097 37.5338 58.4158 36.8066C58.5839 36.7687 58.755 36.7357 58.9286 36.7084V35.0826C58.9286 34.3923 59.4883 33.8326 60.1786 33.8326C60.8689 33.8326 61.4286 34.3923 61.4286 35.0826V36.6977C63.7172 37.0366 65.9748 38.3624 67.1028 41.0491C67.37 41.6855 67.0708 42.4184 66.4342 42.6855C65.7975 42.953 65.065 42.6535 64.7978 42.017C63.7136 39.4348 61.0891 38.7641 58.9688 39.2451C57.3666 39.6084 55.6905 40.7376 55.7916 42.8168C55.8231 43.4679 55.9192 45.4493 60.3989 46.1848C62.0586 46.457 67.1106 47.2865 67.6739 51.9273ZM60.168 24.1891C62.6225 24.1891 64.6195 22.1923 64.6195 19.7376C64.6195 17.2829 62.6227 15.286 60.168 15.286C57.7133 15.286 55.7163 17.2829 55.7163 19.7376C55.7163 22.1923 57.7133 24.1891 60.168 24.1891ZM60.168 17.7859C61.2441 17.7859 62.1195 18.6615 62.1195 19.7374C62.1195 20.8134 61.2441 21.689 60.168 21.689C59.0919 21.689 58.2163 20.8134 58.2163 19.7374C58.2163 18.6615 59.0919 17.7859 60.168 17.7859Z" fill="#0070B8"/>
</g>
<defs>
<clipPath id="clip0_6859_434">
<rect width="80" height="80" fill="white"/>
</clipPath>
</defs>
</svg>
