<svg width="27" height="27" viewBox="0 0 27 27" fill="none" xmlns="http://www.w3.org/2000/svg">
<path d="M13.5 0C6.05678 0 0 6.05678 0 13.5C0 20.9432 6.05678 27 13.5 27C20.9432 27 27 20.9432 27 13.5C27 6.05678 20.9432 0 13.5 0ZM13.5 25.5406C6.85943 25.5406 1.45943 20.1406 1.45943 13.5C1.45943 6.85943 6.85943 1.45943 13.5 1.45943C20.1406 1.45943 25.5406 6.85943 25.5406 13.5C25.5406 20.1406 20.1406 25.5406 13.5 25.5406Z" fill="#A68765"/>
<path d="M13.5032 6.56759C13.9045 6.56759 14.2329 6.23923 14.2329 5.83787V3.64866C14.2329 3.24731 13.9045 2.91895 13.5032 2.91895C13.1018 2.91895 12.7734 3.24731 12.7734 3.64866V5.83787C12.7734 6.23923 13.1018 6.56759 13.5032 6.56759Z" fill="#A68765"/>
<path d="M13.5032 20.4324C13.1018 20.4324 12.7734 20.7607 12.7734 21.1621V23.3513C12.7734 23.7527 13.1018 24.081 13.5032 24.081C13.9045 24.081 14.2329 23.7527 14.2329 23.3513V21.1621C14.2329 20.7607 13.9045 20.4324 13.5032 20.4324Z" fill="#A68765"/>
<path d="M20.4297 13.5C20.4297 13.9013 20.758 14.2297 21.1594 14.2297H23.3486C23.75 14.2297 24.0783 13.9013 24.0783 13.5C24.0783 13.0986 23.75 12.7703 23.3486 12.7703H21.1594C20.758 12.7703 20.4297 13.0986 20.4297 13.5Z" fill="#A68765"/>
<path d="M6.57052 13.5C6.57052 13.0986 6.24216 12.7703 5.8408 12.7703H3.65159C3.25024 12.7703 2.92188 13.0986 2.92188 13.5C2.92188 13.9013 3.25024 14.2297 3.65159 14.2297H5.8408C6.24216 14.2297 6.57052 13.9013 6.57052 13.5Z" fill="#A68765"/>
<path d="M18.9191 8.81153C19.1051 8.81153 19.2912 8.73853 19.4335 8.59626L20.9806 7.0492C21.2652 6.76459 21.2652 6.30121 20.9806 6.01666C20.6959 5.73211 20.2326 5.73205 19.948 6.01666L18.401 7.56371C18.1163 7.84832 18.1163 8.31171 18.401 8.59626C18.547 8.74219 18.733 8.81153 18.9191 8.81153Z" fill="#A68765"/>
<path d="M7.5652 18.4038L6.01815 19.9508C5.73353 20.2354 5.73353 20.6988 6.01815 20.9833C6.16042 21.1256 6.34651 21.1986 6.53259 21.1986C6.71868 21.1986 6.90476 21.1256 7.04704 20.9833L8.59409 19.4363C8.8787 19.1517 8.8787 18.6883 8.59409 18.4038C8.30948 18.1192 7.84981 18.1155 7.5652 18.4038Z" fill="#A68765"/>
<path d="M19.4335 18.4039C19.1489 18.1193 18.6855 18.1193 18.401 18.4039C18.1163 18.6885 18.1163 19.1519 18.401 19.4364L19.948 20.9835C20.0903 21.1258 20.2764 21.1988 20.4625 21.1988C20.6485 21.1988 20.8346 21.1258 20.9769 20.9835C21.2615 20.6989 21.2615 20.2355 20.9769 19.9509L19.4335 18.4039Z" fill="#A68765"/>
<path d="M7.05067 6.01668C6.76606 5.73207 6.30267 5.73207 6.01812 6.01668C5.73357 6.30129 5.73351 6.76468 6.01812 7.04923L7.56518 8.59628C7.70745 8.73856 7.89354 8.81155 8.07962 8.81155C8.26571 8.81155 8.45179 8.73856 8.59407 8.59628C8.87868 8.31167 8.87868 7.84828 8.59407 7.56373L7.05067 6.01668Z" fill="#A68765"/>
<path d="M16.5966 9.19098L13.5536 12.7192L11.6709 10.6358C11.4009 10.3367 10.9375 10.3147 10.6383 10.5848C10.3391 10.8548 10.3172 11.3182 10.5872 11.6173L12.594 13.8357L12.0358 14.4815C11.7731 14.788 11.8059 15.2478 12.1124 15.5104C12.251 15.6308 12.4188 15.6892 12.5867 15.6892C12.791 15.6892 12.9954 15.6016 13.1413 15.4374L13.5792 14.9266L14.0535 15.4484C14.1958 15.609 14.3965 15.6892 14.5935 15.6892C14.7686 15.6892 14.9438 15.6272 15.0824 15.4995C15.3816 15.2295 15.4035 14.7661 15.1335 14.4669L14.5387 13.8101L17.6984 10.1433C17.9611 9.83679 17.9283 9.37706 17.6218 9.11438C17.319 8.85165 16.8592 8.88815 16.5966 9.19098Z" fill="#A68765"/>
</svg>
