<svg width="27" height="27" viewBox="0 0 27 27" fill="none" xmlns="http://www.w3.org/2000/svg">
<path d="M24.627 4.00781H2.37305C1.06724 4.00781 0 5.07036 0 6.38086V20.6191C0 21.9301 1.06792 22.9922 2.37305 22.9922H24.627C25.9328 22.9922 27 21.9296 27 20.6191V6.38086C27 5.07004 25.9322 4.00781 24.627 4.00781ZM24.2626 5.58984C23.4953 6.35961 14.4832 15.4011 14.113 15.7725C13.8038 16.0827 13.1964 16.0829 12.887 15.7725L2.73744 5.58984H24.2626ZM1.58203 20.3283V6.67169L8.38819 13.5L1.58203 20.3283ZM2.73744 21.4102L9.50505 14.6205L11.7666 16.8894C12.6933 17.8192 14.307 17.8188 15.2335 16.8894L17.495 14.6206L24.2626 21.4102H2.73744ZM25.418 20.3283L18.6118 13.5L25.418 6.67169V20.3283Z" fill="#A68765"/>
</svg>
