<svg width="35" height="35" viewBox="0 0 35 35" fill="none" xmlns="http://www.w3.org/2000/svg">
<path d="M17.5 35C27.165 35 35 27.165 35 17.5C35 7.83502 27.165 0 17.5 0C7.83502 0 0 7.83502 0 17.5C0 27.165 7.83502 35 17.5 35Z" fill="url(#paint0_linear_6860_697)"/>
<path d="M21.0368 8.75H13.9632C12.5811 8.75183 11.2562 9.30166 10.2789 10.2789C9.30166 11.2562 8.75183 12.5811 8.75 13.9632V21.0368C8.75183 22.4189 9.30166 23.7438 10.2789 24.7211C11.2562 25.6983 12.5811 26.2482 13.9632 26.25H21.0368C22.4191 26.2488 23.7444 25.6991 24.7218 24.7218C25.6991 23.7444 26.2488 22.4191 26.25 21.0368V13.9632C26.2482 12.5811 25.6983 11.2562 24.7211 10.2789C23.7438 9.30166 22.4189 8.75183 21.0368 8.75ZM24.4908 21.0368C24.4908 21.9529 24.1269 22.8314 23.4792 23.4792C22.8314 24.1269 21.9529 24.4908 21.0368 24.4908H13.9632C13.0471 24.4908 12.1686 24.1269 11.5208 23.4792C10.8731 22.8314 10.5092 21.9529 10.5092 21.0368V13.9632C10.5092 13.0471 10.8731 12.1686 11.5208 11.5208C12.1686 10.8731 13.0471 10.5092 13.9632 10.5092H21.0368C21.9529 10.5092 22.8314 10.8731 23.4792 11.5208C24.1269 12.1686 24.4908 13.0471 24.4908 13.9632V21.0368Z" fill="white"/>
<path d="M17.498 12.9756C16.6025 12.9751 15.7269 13.2403 14.9821 13.7376C14.2373 14.2348 13.6567 14.9418 13.3138 15.7691C12.9709 16.5964 12.881 17.5068 13.0556 18.3852C13.2302 19.2635 13.6614 20.0704 14.2947 20.7036C14.9279 21.3369 15.7348 21.7681 16.6131 21.9427C17.4915 22.1173 18.4019 22.0274 19.2292 21.6845C20.0565 21.3416 20.7635 20.761 21.2607 20.0162C21.758 19.2714 22.0232 18.3958 22.0227 17.5003C22.0215 16.3006 21.5444 15.1505 20.6961 14.3022C19.8478 13.4539 18.6977 12.9768 17.498 12.9756ZM17.498 20.2634C16.9515 20.2634 16.4173 20.1014 15.9629 19.7977C15.5085 19.4941 15.1543 19.0626 14.9452 18.5577C14.7361 18.0528 14.6813 17.4972 14.788 16.9612C14.8946 16.4252 15.1577 15.9328 15.5442 15.5464C15.9306 15.16 16.423 14.8968 16.959 14.7902C17.495 14.6836 18.0505 14.7383 18.5554 14.9474C19.0603 15.1566 19.4919 15.5107 19.7955 15.9651C20.0991 16.4195 20.2612 16.9538 20.2612 17.5003C20.2612 18.2331 19.9701 18.9359 19.4519 19.4541C18.9337 19.9723 18.2309 20.2634 17.498 20.2634Z" fill="white"/>
<path d="M22.0488 14.0946C22.6668 14.0946 23.1678 13.5936 23.1678 12.9755C23.1678 12.3575 22.6668 11.8564 22.0488 11.8564C21.4307 11.8564 20.9297 12.3575 20.9297 12.9755C20.9297 13.5936 21.4307 14.0946 22.0488 14.0946Z" fill="white"/>
<defs>
<linearGradient id="paint0_linear_6860_697" x1="17.5" y1="34.8388" x2="17.5" y2="2.37171" gradientUnits="userSpaceOnUse">
<stop stop-color="#E09B3D"/>
<stop offset="0.24" stop-color="#C74C4D"/>
<stop offset="0.65" stop-color="#C21975"/>
<stop offset="1" stop-color="#7024C4"/>
</linearGradient>
</defs>
</svg>
