<svg width="197" height="37" viewBox="0 0 197 37" fill="none" xmlns="http://www.w3.org/2000/svg">
<g clip-path="url(#clip0_6859_357)">
<path d="M57.0916 10.5537H48.7382L44.7891 29.857H50.2006L51.229 24.749H55.3256C61.2556 24.749 65.0867 21.5936 65.0867 16.7163C65.0825 12.7988 62.1702 10.5537 57.0916 10.5537ZM55.5785 20.6296H52.0635L53.2815 14.6731H56.3498C58.4824 14.6731 59.6119 15.5422 59.6119 17.19C59.6077 19.3774 58.1368 20.6296 55.5785 20.6296Z" fill="white"/>
<path d="M74.9969 14.71C69.5516 14.71 65.75 18.2526 65.75 23.3276C65.75 27.4429 68.932 30.104 73.8547 30.104C76.3582 30.104 78.5203 29.4778 80.2905 28.2379L78.1705 25.1154C77.1548 25.8734 75.844 26.2895 74.4574 26.2895C72.2195 26.2895 71.0309 25.4532 70.8244 23.7313L70.8075 23.5995H82.2123C82.343 23.0146 82.5031 22.1619 82.5031 21.2309C82.4989 17.2722 79.5529 14.71 74.9969 14.71ZM77.7406 21.0455H71.0899L71.1405 20.8931C71.7221 19.1877 72.9992 18.2444 74.7398 18.2444C75.7092 18.2444 76.5057 18.5245 77.041 19.06C77.513 19.5296 77.7533 20.1763 77.7406 20.9302V21.0455Z" fill="white"/>
<path d="M91.3067 16.6007L91.0243 16.8809L91.4163 14.9612H86.5189L83.4844 29.8568H88.6684L90.1351 22.8045C90.6366 20.3576 92.1117 19.1671 94.6489 19.1671C95.0493 19.1671 95.3443 19.1918 95.7826 19.2371L96.6762 14.71C94.3117 14.7388 92.5542 15.3567 91.3067 16.6007Z" fill="white"/>
<path d="M101.233 29.8565L104.267 14.9609H99.1169L96.0781 29.8565H101.233Z" fill="white"/>
<path d="M127.717 14.71C125.479 14.71 123.545 15.5462 122.125 17.128L122.011 17.2557L121.931 17.1033C121.113 15.5833 119.453 14.71 117.383 14.71C115.638 14.71 114.066 15.3155 112.84 16.4648L112.566 16.7202L112.924 14.9612H108.027L104.992 29.8568H110.176L111.698 22.3884C112.165 20.1228 113.32 18.9735 115.128 18.9735C116.439 18.9735 117.189 19.7603 117.189 21.1279C117.189 21.4945 117.147 21.8612 117.071 22.1866L115.474 29.8609H120.654L122.205 22.3349C122.673 20.1063 123.815 18.9776 125.606 18.9776C126.934 18.9776 127.667 19.7314 127.667 21.1032C127.667 21.4822 127.629 21.8241 127.549 22.1866L125.977 29.8609H131.157L132.821 21.581C132.956 20.9549 133.019 20.3535 133.019 19.7314C133.024 16.5884 131.039 14.71 127.717 14.71Z" fill="white"/>
<path d="M144.794 14.71C139.348 14.71 135.547 18.2526 135.547 23.3276C135.547 27.4429 138.729 30.104 143.652 30.104C146.155 30.104 148.317 29.4778 150.083 28.2379L147.963 25.1154C146.952 25.8734 145.637 26.2895 144.25 26.2895C142.012 26.2895 140.824 25.4532 140.617 23.7313L140.6 23.5995H152.005C152.136 23.0146 152.296 22.1619 152.296 21.2309C152.3 17.2722 149.354 14.71 144.794 14.71ZM147.542 21.0455H140.891L140.942 20.8931C141.523 19.1877 142.8 18.2444 144.541 18.2444C145.51 18.2444 146.307 18.5245 146.842 19.06C147.314 19.5296 147.554 20.1763 147.542 20.9302V21.0455Z" fill="white"/>
<path d="M162.812 11.5879H157.632L156.831 15.5219H154.577L153.797 19.2499H156.081L155.023 24.3867C154.897 24.9428 154.884 25.4495 154.884 25.7873C154.884 28.4937 156.793 30.1085 159.992 30.1085C161.071 30.1085 162.61 29.9602 163.887 29.2723L163.246 25.8532C162.69 26.121 162.209 26.2404 161.708 26.2404C160.709 26.2404 160.161 25.742 160.161 24.8398C160.161 24.708 160.182 24.5638 160.207 24.3949L160.22 24.3208L161.269 19.254H164.78L165.535 15.526H162.02L162.812 11.5879Z" fill="white"/>
<path d="M175.325 14.71C169.88 14.71 166.078 18.2526 166.078 23.3276C166.078 27.4429 169.26 30.104 174.183 30.104C176.686 30.104 178.848 29.4778 180.619 28.2379L178.499 25.1154C177.487 25.8734 176.172 26.2895 174.786 26.2895C172.548 26.2895 171.359 25.4532 171.153 23.7313L171.136 23.5995H182.54C182.671 23.0146 182.831 22.1619 182.831 21.2309C182.831 17.2722 179.885 14.71 175.325 14.71ZM178.069 21.0455H171.418L171.469 20.8931C172.05 19.1877 173.327 18.2444 175.068 18.2444C176.037 18.2444 176.834 18.5245 177.369 19.06C177.841 19.5296 178.081 20.1763 178.069 20.9302V21.0455Z" fill="white"/>
<path d="M191.352 16.8848L191.744 14.9651H186.847L183.812 29.8607H188.996L190.463 22.8084C190.965 20.3615 192.44 19.171 194.977 19.171C195.377 19.171 195.672 19.1957 196.111 19.241L197.004 14.7139C194.644 14.7386 192.887 15.3565 191.639 16.6046L191.352 16.8848Z" fill="white"/>
<path d="M102.469 13.054C104.5 13.054 105.862 11.8553 105.862 10.0716C105.862 8.6463 104.618 7.64941 102.84 7.64941C100.859 7.64941 99.4766 8.83991 99.4766 10.5453C99.4766 12.0242 100.707 13.054 102.469 13.054Z" fill="white"/>
<path d="M27.3866 16.4155L28.8744 13.4578L28.0568 10.7802H8.17637L10.3595 7.06041L7.15222 1.66406L0 13.845L6.92041 25.4904L10.0982 20.0776L7.91928 16.4155H27.3866Z" fill="white"/>
<path d="M35.5423 0.0865063L35.517 0.00411935L9.63075 0L12.8339 5.38811H31.2391L33.8353 13.8657L29.823 21.8326H29.3088H29.2751L22.498 21.8284V21.8326H21.2589V21.8284H12.4798L9.34837 27.1589L6.5625 37H12.2059L14.9749 27.2165H21.2589H22.498H33.0936L39.7611 13.9811L39.7822 13.9399L35.5423 0.0865063Z" fill="white"/>
</g>
<defs>
<clipPath id="clip0_6859_357">
<rect width="197" height="37" fill="white"/>
</clipPath>
</defs>
</svg>
