<svg width="27" height="27" viewBox="0 0 27 27" fill="none" xmlns="http://www.w3.org/2000/svg">
<path d="M13.5 0.84375C11.0385 0.84375 8.67774 1.82159 6.93717 3.56217C5.19659 5.30274 4.21875 7.66346 4.21875 10.125C4.21875 15.0272 12.4875 25.3969 12.8419 25.8441C12.9209 25.9426 13.0211 26.0221 13.135 26.0768C13.2489 26.1314 13.3737 26.1598 13.5 26.1598C13.6263 26.1598 13.7511 26.1314 13.865 26.0768C13.9789 26.0221 14.0791 25.9426 14.1581 25.8441C14.5125 25.3969 22.7812 15.0272 22.7812 10.125C22.7812 7.66346 21.8034 5.30274 20.0628 3.56217C18.3223 1.82159 15.9615 0.84375 13.5 0.84375ZM13.5 23.9456C10.8928 20.5706 5.90625 13.3988 5.90625 10.125C5.90625 8.11101 6.7063 6.17951 8.13041 4.75541C9.55451 3.3313 11.486 2.53125 13.5 2.53125C15.514 2.53125 17.4455 3.3313 18.8696 4.75541C20.2937 6.17951 21.0938 8.11101 21.0938 10.125C21.0938 13.3988 16.1072 20.5537 13.5 23.9456Z" fill="#A68765"/>
<path d="M13.5 4.21875C12.4987 4.21875 11.52 4.51566 10.6874 5.07194C9.8549 5.62821 9.20603 6.41886 8.82286 7.34392C8.43969 8.26897 8.33944 9.28687 8.53478 10.2689C8.73011 11.2509 9.21227 12.153 9.92027 12.861C10.6283 13.569 11.5303 14.0511 12.5124 14.2465C13.4944 14.4418 14.5123 14.3416 15.4373 13.9584C16.3624 13.5752 17.153 12.9263 17.7093 12.0938C18.2656 11.2613 18.5625 10.2825 18.5625 9.28125C18.5625 7.93859 18.0291 6.65093 17.0797 5.70152C16.1303 4.75212 14.8427 4.21875 13.5 4.21875ZM13.5 12.6563C12.8325 12.6563 12.18 12.4583 11.625 12.0875C11.0699 11.7166 10.6374 11.1895 10.3819 10.5728C10.1265 9.95611 10.0596 9.27751 10.1899 8.62282C10.3201 7.96813 10.6415 7.36677 11.1135 6.89476C11.5855 6.42276 12.1869 6.10133 12.8416 5.9711C13.4963 5.84087 14.1749 5.90771 14.7916 6.16316C15.4083 6.4186 15.9354 6.85119 16.3062 7.4062C16.6771 7.96122 16.875 8.61374 16.875 9.28125C16.875 10.1764 16.5194 11.0348 15.8865 11.6677C15.2536 12.3007 14.3951 12.6563 13.5 12.6563Z" fill="#A68765"/>
</svg>
