<svg width="27" height="27" viewBox="0 0 27 27" fill="none" xmlns="http://www.w3.org/2000/svg">
<path d="M19.7866 17.6596C19.5514 17.4236 19.272 17.2364 18.9643 17.1086C18.6566 16.9808 18.3268 16.9151 17.9936 16.9151C17.6605 16.9151 17.3306 16.9808 17.0229 17.1086C16.7152 17.2364 16.4358 17.4236 16.2007 17.6596L14.9772 18.883C13.5997 18.0088 12.3235 16.9844 11.1719 15.8286C10.0186 14.6749 8.99444 13.3989 8.11753 12.0233L9.34097 10.7999C9.57695 10.5647 9.76418 10.2853 9.89194 9.97762C10.0197 9.66994 10.0855 9.34007 10.0855 9.00692C10.0855 8.67378 10.0197 8.3439 9.89194 8.03623C9.76418 7.72855 9.57695 7.44912 9.34097 7.21396L6.95316 4.83458C6.72131 4.59782 6.44424 4.41008 6.1384 4.28253C5.83257 4.15498 5.50421 4.09021 5.17284 4.09208C4.83913 4.09126 4.50854 4.15644 4.20011 4.28387C3.89167 4.4113 3.61148 4.59846 3.37566 4.83458L2.22816 5.97364C1.68121 6.56171 1.27301 7.26487 1.03355 8.03144C0.794083 8.79801 0.729453 9.6085 0.844406 10.4033C1.11441 13.5674 3.19003 17.3727 6.38784 20.579C9.58566 23.7852 13.4332 25.8524 16.5972 26.1561C16.8333 26.1688 17.0699 26.1688 17.306 26.1561C17.9871 26.1847 18.667 26.0771 19.306 25.8395C19.9449 25.6018 20.53 25.2391 21.0269 24.7724L22.166 23.6249C22.4021 23.3891 22.5893 23.1089 22.7167 22.8004C22.8441 22.492 22.9093 22.1614 22.9085 21.8277C22.9103 21.4963 22.8456 21.168 22.718 20.8621C22.5905 20.5563 22.4027 20.2792 22.166 20.0474L19.7866 17.6596ZM20.9763 22.4352L19.8288 23.5743C19.4045 23.9279 18.9092 24.1862 18.3764 24.3318C17.8436 24.4773 17.2858 24.5068 16.7407 24.418C13.9985 24.1818 10.5053 22.2411 7.61972 19.3555C4.73409 16.4699 2.79347 13.0021 2.53191 10.2599C2.44092 9.71476 2.46923 9.15637 2.6149 8.62324C2.76056 8.0901 3.02011 7.5949 3.37566 7.17177L4.56534 6.02427C4.64418 5.94607 4.73768 5.8842 4.84049 5.84221C4.94329 5.80022 5.05336 5.77894 5.16441 5.77958C5.27545 5.77894 5.38553 5.80022 5.48833 5.84221C5.59113 5.8842 5.68463 5.94607 5.76347 6.02427L8.15128 8.43739C8.30843 8.59548 8.39664 8.80933 8.39664 9.03224C8.39664 9.25514 8.30843 9.46899 8.15128 9.62708L6.46378 11.3146C6.33173 11.446 6.24688 11.6174 6.22246 11.8021C6.19804 11.9867 6.23542 12.1743 6.32878 12.3355C7.33908 14.0555 8.56702 15.6379 9.98222 17.0436C11.388 18.4588 12.9704 19.6868 14.6903 20.6971C14.8515 20.7904 15.0391 20.8278 15.2238 20.8034C15.4085 20.779 15.5799 20.6941 15.7113 20.5621L17.3988 18.8746C17.5569 18.7174 17.7707 18.6292 17.9936 18.6292C18.2165 18.6292 18.4304 18.7174 18.5885 18.8746L20.9763 21.2624C21.0545 21.3412 21.1163 21.4347 21.1583 21.5375C21.2003 21.6403 21.2216 21.7504 21.221 21.8615C21.2157 22.0769 21.1281 22.2822 20.9763 22.4352Z" fill="#A68765"/>
<path d="M22.4438 4.54784C21.2712 3.37078 19.8772 2.43748 18.3421 1.80175C16.8071 1.16602 15.1615 0.840441 13.5 0.843775C13.2762 0.843775 13.0616 0.93267 12.9034 1.0909C12.7451 1.24914 12.6562 1.46375 12.6562 1.68753C12.6562 1.9113 12.7451 2.12591 12.9034 2.28415C13.0616 2.44238 13.2762 2.53128 13.5 2.53128C14.9483 2.53122 16.3822 2.81798 17.7191 3.37501C19.056 3.93204 20.2693 4.7483 21.2891 5.77669C22.3088 6.80509 23.1149 8.02525 23.6606 9.36677C24.2063 10.7083 24.481 12.1446 24.4688 13.5928C24.4688 13.8166 24.5576 14.0312 24.7159 14.1895C24.8741 14.3477 25.0887 14.4366 25.3125 14.4366C25.5363 14.4366 25.7509 14.3477 25.9091 14.1895C26.0674 14.0312 26.1562 13.8166 26.1562 13.5928C26.1724 11.9137 25.8523 10.2484 25.2146 8.69492C24.577 7.14149 23.6349 5.73142 22.4438 4.54784Z" fill="#A68765"/>
<path d="M17.6394 9.37408C18.1182 9.85003 18.497 10.4169 18.7535 11.0415C19.01 11.666 19.1389 12.3355 19.1328 13.0106C19.1328 13.2344 19.2217 13.449 19.3799 13.6073C19.5382 13.7655 19.7528 13.8544 19.9766 13.8544C20.2003 13.8544 20.4149 13.7655 20.5732 13.6073C20.7314 13.449 20.8203 13.2344 20.8203 13.0106C20.8315 12.1171 20.6651 11.2303 20.3309 10.4016C19.9967 9.5729 19.5013 8.8188 18.8734 8.18304C18.2455 7.54728 17.4976 7.04252 16.6731 6.69803C15.8486 6.35355 14.9639 6.1762 14.0703 6.17627C13.8465 6.17627 13.6319 6.26516 13.4737 6.4234C13.3155 6.58163 13.2266 6.79624 13.2266 7.02002C13.2266 7.2438 13.3155 7.45841 13.4737 7.61664C13.6319 7.77487 13.8465 7.86377 14.0703 7.86377C14.7353 7.86878 15.3927 8.00474 16.0051 8.26388C16.6175 8.52302 17.1728 8.90027 17.6394 9.37408Z" fill="#A68765"/>
</svg>
